{"title":"Black Beauty (1994)(HQC) DVDRip NLSubs-DMT","uid":6051719,"size":740912731,"categoryP":"video","categoryS":"movies","magnet":"?xt=urn:btih:9449fae12a9c21ce949b2940c323c529b59f1b76&amp;dn=Black+Beauty+%281994%29%28HQC%29+DVDRip+NLSubs-DMT&amp;tr=udp%3A%2F%2Ftracker.openbittorrent.com%3A80&amp;tr=udp%3A%2F%2Fopen.demonii.com%3A1337&amp;tr=udp%3A%2F%2Ftracker.coppersurfer.tk%3A6969&amp;tr=udp%3A%2F%2Fexodus.desync.com%3A6969","seeders":4,"leechers":1,"uploader":"NLUPPER002","files":-1,"time":1292759052,"description":"Black Beauty (1994)(HQC) DVDRip NLSubs-DMT\n\n[IMG]http://img825.imageshack.us/img825/8317/frontxxe.jpg[/IMG]\n\nVerenigde Staten / Verenigd Koninkrijk\nFamilie / Drama\n88 minuten\n\ngeregisseerd door Caroline Thompson\nmet Sean Bean, David Thewlis en Jim Carter\n\nHet paard Black Beauty heeft geen geluk in het leven. Keer op keer wordt de arme drommel mishandeld door zijn baasje. \nWanneer hij echter door een aardige mensenfamilie wordt geadopteerd, \nlijkt Black Beauty voor het eerst in zijn leven een beetje gelukkig te kunnen worden. Naar het jeugdboek van Anna Sewell.\n--------------------------------------------------------------------------------------------------------------------------\nPLOT\n\nThe fates of horses, and the people who own and command them, are revealed as Black Beauty narrates the circle of his life. \n---------------------------------------------------------------------------------------------------------------------------\n\nMM:   &lt;a href=&quot; http://www.moviemeter.nl/film/8258&quot; rel=&quot;nofollow&quot; target=&quot;_NEW&quot;&gt; http://www.moviemeter.nl/film/8258&lt;/a&gt;\n\nIMDB:   &lt;a href=&quot; http://www.imdb.com/title/tt0109279/&quot; rel=&quot;nofollow&quot; target=&quot;_NEW&quot;&gt; http://www.imdb.com/title/tt0109279/&lt;/a&gt;\n---------------------------------------------------------------------------------------------------------------------------\nSceens (rough)\n\n    &lt;a href=&quot; http://img64.imageshack.us/img64/4570/blackbeauty1994title1av.jpg&quot; rel=&quot;nofollow&quot; target=&quot;_NEW&quot;&gt; http://img64.imageshack.us/img64/4570/blackbeauty1994title1av.jpg&lt;/a&gt;\n    &lt;a href=&quot; http://img691.imageshack.us/img691/4570/blackbeauty1994title1av.jpg&quot; rel=&quot;nofollow&quot; target=&quot;_NEW&quot;&gt; http://img691.imageshack.us/img691/4570/blackbeauty1994title1av.jpg&lt;/a&gt;\n    &lt;a href=&quot; http://img694.imageshack.us/img694/4570/blackbeauty1994title1av.jpg&quot; rel=&quot;nofollow&quot; target=&quot;_NEW&quot;&gt; http://img694.imageshack.us/img694/4570/blackbeauty1994title1av.jpg&lt;/a&gt;\n    &lt;a href=&quot; http://img204.imageshack.us/img204/4570/blackbeauty1994title1av.jpg&quot; rel=&quot;nofollow&quot; target=&quot;_NEW&quot;&gt; http://img204.imageshack.us/img204/4570/blackbeauty1994title1av.jpg&lt;/a&gt;\n    &lt;a href=&quot; http://img443.imageshack.us/img443/4570/blackbeauty1994title1av.jpg&quot; rel=&quot;nofollow&quot; target=&quot;_NEW&quot;&gt; http://img443.imageshack.us/img443/4570/blackbeauty1994title1av.jpg&lt;/a&gt;\n---------------------------------------------------------------------------------------------------------------------------\nINFO\n\nSource....: Retail\nSubs......: NL idx/sub\nGeneral\nComplete name                    : Black.Beauty.1994.HQC.DVDRip.NLSubs-DMT.avi\nFormat                           : AVI\nFormat/Info                      : Audio Video Interleave\nFile size                        : 705 MiB\nDuration                         : 1h 24mn\nOverall bit rate                 : 1 167 Kbps\nMovie name                       : Black Beauty (1994).Title1.DVDRip\nWriting application              : Lavf52.33.0\nOriginal source form/Name        : Black Beauty (1994)\n\nVideo\nID                               : 0\nFormat                           : AVC\nFormat/Info                      : Advanced Video Codec\nCodec ID                         : H264\nDuration                         : 1h 24mn\nBit rate                         : 1 027 Kbps\nWidth                            : 720 pixels\nHeight                           : 408 pixels\nDisplay aspect ratio             : 16:9\nFrame rate                       : 25.000 fps\nColor space                      : YUV\nChroma subsampling               : 4:2:0\nBits/(Pixel*Frame)               : 0.140\nStream size                      : 620 MiB (88%)\n\nAudio\nID                               : 1\nFormat                           : MPEG Audio\nFormat version                   : Version 1\nFormat profile                   : Layer 3\nMode                             : Joint stereo\nMode extension                   : MS Stereo\nCodec ID                         : 55\nCodec ID/Hint                    : MP3\nDuration                         : 1h 24mn\nBit rate mode                    : Constant\nBit rate                         : 128 Kbps\nChannel(s)                       : 2 channels\nSampling rate                    : 48.0 KHz\nStream size                      : 77.3 MiB (11%)\nAlignment                        : Aligned on interleaves\nInterleave, duration             : 24 ms (0.60 video frame)\nInterleave, preload duration     : 24 ms\n\n","torrent":{"xt":"urn:btih:9449fae12a9c21ce949b2940c323c529b59f1b76","amp;dn":"Black+Beauty+%281994%29%28HQC%29+DVDRip+NLSubs-DMT","amp;tr":["udp%3A%2F%2Ftracker.openbittorrent.com%3A80","udp%3A%2F%2Fopen.demonii.com%3A1337","udp%3A%2F%2Ftracker.coppersurfer.tk%3A6969","udp%3A%2F%2Fexodus.desync.com%3A6969"],"infoHash":"9449fae12a9c21ce949b2940c323c529b59f1b76","infoHashBuffer":{"type":"Buffer","data":[148,73,250,225,42,156,33,206,148,155,41,64,195,35,197,41,181,159,27,118]},"announce":[],"urlList":[]}}